<?xml version="1.0" encoding="UTF-8" standalone="no"?>
<!-- Created with Inkscape (http://www.inkscape.org/) -->

<svg
   xmlns:dc="http://purl.org/dc/elements/1.1/"
   xmlns:cc="http://creativecommons.org/ns#"
   xmlns:rdf="http://www.w3.org/1999/02/22-rdf-syntax-ns#"
   xmlns:svg="http://www.w3.org/2000/svg"
   xmlns="http://www.w3.org/2000/svg"
   xmlns:sodipodi="http://sodipodi.sourceforge.net/DTD/sodipodi-0.dtd"
   xmlns:inkscape="http://www.inkscape.org/namespaces/inkscape"
   width="27.094845cm"
   height="9.738368cm"
   viewBox="0 0 270.94846 97.38368"
   version="1.1"
   id="svg4647"
   inkscape:version="0.92.4 (5da689c313, 2019-01-14)"
   sodipodi:docname="logo3.svg">
  <defs
     id="defs4641" />
  <sodipodi:namedview
     id="base"
     pagecolor="#ffffff"
     bordercolor="#ffffff"
     borderopacity="0"
     inkscape:pageopacity="0"
     inkscape:pageshadow="2"
     inkscape:zoom="0.29185202"
     inkscape:cx="460.21259"
     inkscape:cy="-362.42706"
     inkscape:document-units="cm"
     inkscape:current-layer="layer1"
     showgrid="false"
     inkscape:window-width="1366"
     inkscape:window-height="705"
     inkscape:window-x="-8"
     inkscape:window-y="-8"
     inkscape:window-maximized="1"
     inkscape:pagecheckerboard="true"
     borderlayer="false"
     showborder="true"
     fit-margin-top="0"
     fit-margin-left="0"
     fit-margin-right="0"
     fit-margin-bottom="0"
     units="cm" />
  <metadata
     id="metadata4644">
    <rdf:RDF>
      <cc:Work
         rdf:about="">
        <dc:format>image/svg+xml</dc:format>
        <dc:type
           rdf:resource="http://purl.org/dc/dcmitype/StillImage" />
        <dc:title></dc:title>
      </cc:Work>
    </rdf:RDF>
  </metadata>
  <g
     inkscape:label="Capa 1"
     inkscape:groupmode="layer"
     id="layer1"
     transform="translate(-15.253336,-138.17749)">
    <path
       style="fill:#000000;stroke-width:0.8298372"
       d="m 59.03636,234.92483 -2.28588,-0.43978 -0.03551,-21.11001 -0.03551,-21.11001 6.257751,0.006 c 7.634325,0.007 11.101846,1.20115 13.024649,4.48709 2.040879,3.48777 1.938057,9.09136 -0.228923,12.47799 l -1.692974,2.64571 2.408702,3.05378 c 1.932277,2.44969 2.408176,3.79244 2.406029,6.78871 -0.0035,4.94086 -2.059985,9.25897 -5.434638,11.41161 -2.742183,1.74923 -9.93832,2.64447 -14.384018,1.78934 z m 10.776658,-7.54759 c 3.495716,-4.69913 0.849875,-11.05876 -4.600849,-11.05876 -1.211072,0 -1.384877,0.70456 -1.384877,5.61245 0,3.08685 0.214722,5.9011 0.47712,6.25382 0.876555,1.17832 4.417431,0.6591 5.508563,-0.80796 z M 68.41897,208.71147 c 1.929926,-2.86675 1.268909,-8.00203 -1.177975,-9.15147 -1.07487,-0.50455 -2.175681,-0.62046 -2.446253,-0.25683 -0.270598,0.36365 -0.638834,3.0421 -0.818304,5.9519 -0.314808,5.10255 -0.26358,5.29062 1.440655,5.29062 0.971869,0 2.322729,-0.82501 3.001902,-1.83422 z m 21.493143,25.8746 c -4.044233,-1.67763 -5.597774,-5.02653 -6.156555,-13.2714 -0.68372,-10.08898 -0.724635,-26.91507 -0.06679,-27.43951 0.295283,-0.23523 2.147199,-0.72046 4.115464,-1.07728 l 3.578669,-0.64888 v 16.06507 16.06507 l 1.905961,1.91786 c 2.309829,2.32424 5.170102,1.6815 6.413245,-1.44092 0.563943,-1.41638 0.798363,-7.01815 0.704193,-16.82599 -0.13028,-13.56844 -0.0422,-14.70346 1.14359,-14.71323 0.70663,-0.006 2.49252,-0.27955 3.96872,-0.60683 l 2.68399,-0.59659 -0.0372,10.46875 c -0.0735,20.95376 -1.19526,26.502 -6.14608,30.40024 -2.557546,2.01376 -9.130783,2.93866 -12.107808,1.70364 z m 146.262717,-0.7091 c -0.59511,-0.92614 -2.33579,-4.81982 -3.8685,-8.65283 -3.84246,-9.60884 -4.91129,-9.31554 -4.35945,1.19628 l 0.42937,8.17815 h -3.86136 -3.86131 l -0.0355,-21.16694 -0.0355,-21.16694 5.89986,0.006 c 7.48207,0.007 10.70454,1.22218 13.0112,4.90722 3.04732,4.86833 2.45397,11.60058 -1.52902,17.3478 l -1.75798,2.53662 3.63475,6.84758 c 1.99919,3.76618 3.63478,7.0537 3.63478,7.30564 0,0.43184 -5.35362,4.34562 -5.94427,4.34562 -0.15134,0 -0.76252,-0.75797 -1.35713,-1.68365 z m -3.83377,-23.27026 c 1.75108,-2.60105 1.77939,-8.57441 0.0508,-10.27558 -3.27299,-3.21719 -4.63157,-1.00568 -4.64992,7.56828 -0.01,4.15653 0.14218,4.57005 1.66865,4.57005 0.92312,0 2.24273,-0.83863 2.9325,-1.86275 z m -34.62636,2.85322 -0.0355,-21.19524 h 9.29961 c 8.69029,0 9.29962,0.12045 9.29962,1.84559 0,4.3414 -0.65035,4.88937 -5.80244,4.88937 h -4.93356 v 5.29177 5.29165 h 4.29441 4.29439 v 3.36753 3.36743 h -4.74956 -4.74956 l 0.45516,4.46391 c 0.2503,2.45514 0.45513,5.0529 0.45513,5.7728 0,0.98864 1.32548,1.30887 5.41335,1.30887 h 5.41335 l -0.22428,3.12698 -0.22427,3.12683 -9.0852,0.26934 -9.08519,0.26932 -0.0355,-21.19525 z m -86.88894,19.45488 c -0.17845,-0.3966 0.26012,-3.80208 0.97448,-7.56713 0.71441,-3.76505 1.64865,-10.90888 2.07615,-15.87519 1.25653,-14.5979 1.58575,-16.63791 2.97095,-18.41043 0.72371,-0.92615 1.89293,-1.66524 2.59828,-1.64274 1.68163,0.0569 6.23076,8.0577 7.96481,14.01357 1.11621,3.83391 1.73063,4.76506 3.31214,5.01971 2.15325,0.34659 4.67805,-2.11719 4.67805,-4.56517 0,-2.48662 2.82814,-8.98703 5.19831,-11.9482 3.86536,-4.82926 6.18432,-1.42979 7.4415,10.90899 0.24262,2.38127 0.67958,4.76255 0.97105,5.29165 0.29149,0.52955 0.73614,3.99288 0.98811,7.69713 0.252,3.70413 0.64797,9.26067 0.87989,12.34764 0.40889,5.44211 0.3717,5.60302 -1.22361,5.29176 -1.12596,-0.21932 -1.82966,-1.23217 -2.22932,-3.20741 -1.78776,-8.83579 -12.02593,-8.2718 -12.02593,0.6625 0,2.63741 -0.0985,2.70504 -3.93654,2.70504 -3.88526,0 -3.93653,-0.0341 -3.93653,-2.84891 0,-4.07447 -2.42769,-6.77246 -6.09392,-6.77246 -3.49859,0 -6.07355,2.98367 -6.07355,7.03746 0,2.21799 -0.29806,2.58391 -2.10495,2.58391 -1.15772,0 -2.25094,-0.32501 -2.42937,-0.7216 z m 43.18392,-1.99015 c 0,-1.49148 0.4624,-4.84698 1.02768,-7.45655 0.56521,-2.60958 1.3725,-8.85782 1.79397,-13.88504 1.22306,-14.58859 1.56659,-16.73804 2.96,-18.52101 0.72371,-0.92615 1.89292,-1.66524 2.5983,-1.64274 1.6816,0.0569 6.23075,8.0577 7.9648,14.01357 1.11621,3.83391 1.73063,4.76506 3.31212,5.01971 2.15325,0.34659 4.67804,-2.11719 4.67804,-4.56517 0,-2.48662 2.82815,-8.98703 5.19832,-11.9482 3.86535,-4.82926 6.18431,-1.42979 7.44149,10.90899 0.24261,2.38127 0.67957,4.76255 0.97106,5.29165 0.29148,0.52955 0.73615,3.99288 0.98811,7.69713 0.25199,3.70413 0.64796,9.26067 0.87989,12.34764 0.40891,5.44211 0.37169,5.60302 -1.22361,5.29176 -1.12596,-0.21932 -1.82966,-1.23217 -2.22933,-3.20741 -1.78777,-8.83579 -12.02593,-8.2718 -12.02593,0.6625 0,2.63741 -0.0985,2.70504 -3.93652,2.70504 -3.88527,0 -3.93654,-0.0341 -3.93654,-2.84891 0,-4.07447 -2.42769,-6.77246 -6.09393,-6.77246 -3.49858,0 -6.07351,2.98367 -6.07351,7.03746 0,2.22958 -0.29445,2.58391 -2.14721,2.58391 -1.87789,0 -2.1472,-0.33979 -2.1472,-2.71174 z m -34.34424,1.02844 c 0.006,-0.39661 0.30358,-1.3432 0.66116,-2.10288 0.53891,-1.14478 0.84339,-1.1658 1.77837,-0.12272 1.63712,1.82638 1.38567,2.9472 -0.66116,2.9472 -0.98413,0 -1.7844,-0.32501 -1.77837,-0.7216 z m 20.05284,-1.26116 c 0.89191,-2.24013 2.36503,-2.03457 2.71321,0.37841 0.16831,1.16684 -0.27745,1.60401 -1.63558,1.60401 -1.66355,0 -1.78099,-0.21592 -1.07763,-1.98276 z m 22.89114,1.26116 c 0.005,-0.39661 0.30356,-1.3432 0.66116,-2.10288 0.53891,-1.14478 0.84342,-1.1658 1.77835,-0.12272 1.63715,1.82638 1.3857,2.9472 -0.66114,2.9472 -0.98411,0 -1.7844,-0.32501 -1.77837,-0.7216 z m 20.05284,-1.26116 c 0.8919,-2.24013 2.36502,-2.03457 2.71322,0.37841 0.1683,1.16684 -0.27745,1.60401 -1.63558,1.60401 -1.66356,0 -1.78098,-0.21592 -1.07764,-1.98276 z m -52.4159,-50.69398 c -0.59497,-0.92614 -2.33579,-4.81971 -3.86855,-8.6527 -3.84243,-9.60887 -4.91125,-9.31557 -4.3594,1.19625 l 0.42934,8.17805 h -3.86132 -3.86134 l -0.0355,-21.16684 -0.0355,-21.16694 5.89988,0.006 c 7.48208,0.007 10.70449,1.22218 13.01119,4.90733 3.04735,4.86824 2.45398,11.60048 -1.52899,17.3477 l -1.758,2.53673 3.63478,6.84757 c 1.99912,3.76618 3.63476,7.05373 3.63476,7.30567 0,0.43181 -5.35363,4.3456 -5.94428,4.3456 -0.1515,0 -0.76227,-0.75795 -1.35718,-1.68377 z m -3.83379,-23.27015 c 1.75106,-2.60106 1.77943,-8.57442 0.049,-10.27556 -3.27297,-3.2172 -4.63156,-1.0057 -4.6499,7.56815 -0.01,4.15664 0.14203,4.57017 1.66863,4.57017 0.92312,0 2.24275,-0.83865 2.93249,-1.86276 z m 107.61506,23.27015 c -0.59511,-0.92614 -2.33577,-4.81971 -3.8685,-8.6527 -3.84246,-9.60887 -4.91129,-9.31557 -4.35945,1.19625 l 0.42936,8.17805 h -3.86133 -3.86133 l -0.0355,-21.16684 -0.0355,-21.16694 5.89987,0.006 c 7.48207,0.007 10.70454,1.22218 13.01118,4.90733 3.04734,4.86824 2.45399,11.60048 -1.52897,17.3477 l -1.75801,2.53673 3.63476,6.84757 c 1.99918,3.76618 3.63478,7.05373 3.63478,7.30567 0,0.43181 -5.35364,4.3456 -5.94427,4.3456 -0.15134,0 -0.76254,-0.75795 -1.35715,-1.68377 z m -3.83379,-23.27015 c 1.7511,-2.60106 1.77943,-8.57442 0.049,-10.27556 -3.27298,-3.2172 -4.63156,-1.0057 -4.6499,7.56815 -0.01,4.15664 0.14218,4.57017 1.66864,4.57017 0.92312,0 2.24274,-0.83865 2.93248,-1.86276 z M 22.736849,178.11363 c -0.255043,-1.47717 -2.107114,-10.60251 -4.1157,-20.27852 -2.008585,-9.67592 -3.518685,-17.7718 -3.355777,-17.99089 0.162907,-0.21932 2.024742,-0.52842 4.137392,-0.68752 l 3.841187,-0.28977 2.535885,14.67256 c 1.394743,8.06986 2.754739,14.67254 3.022217,14.67254 0.267469,0 1.513191,-5.30381 2.768255,-11.78615 3.834796,-19.80647 3.26092,-18.36907 7.054657,-17.67009 1.79264,0.33069 3.349521,0.7216 3.459746,0.86933 0.110228,0.14772 -1.806792,9.3467 -4.260017,20.44115 l -4.460419,20.1718 -5.081852,0.2807 c -5.040552,0.27841 -5.085616,0.25909 -5.545574,-2.40525 z m 23.242443,-18.5326 -0.03551,-21.19525 H 55.2434 c 8.690282,0 9.299613,0.12047 9.299613,1.8456 0,4.3413 -0.650331,4.88937 -5.802444,4.88937 h -4.933551 v 5.29165 5.29177 h 4.294397 4.294399 v 3.36743 3.36754 H 57.64626 52.896715 l 0.455138,4.4638 c 0.250308,2.45513 0.455139,5.05289 0.455139,5.77278 0,0.98865 1.325473,1.309 5.413342,1.309 h 5.413352 l -0.224272,3.12684 -0.224273,3.12698 -9.085189,0.26931 -9.085198,0.26933 z m 27.01847,3.26356 0.223766,-17.87736 -4.029888,0.67728 -4.029879,0.67728 0.2274,-3.72698 0.227401,-3.72709 11.723758,-0.26477 11.723767,-0.26477 -0.450996,3.03105 c -0.248028,1.66717 -0.450997,3.44117 -0.450997,3.94221 0,0.54545 -1.612782,0.63977 -4.016843,0.23636 l -4.016835,-0.67501 0.264004,17.92383 0.264004,17.92374 -3.941278,0.001 -3.941286,0.001 z m 18.78844,-3.26356 -0.0355,-21.19525 h 9.299618 c 8.69029,0 9.2996,0.12047 9.2996,1.8456 0,4.3413 -0.65032,4.88937 -5.80243,4.88937 h -4.933565 v 5.29165 5.29177 h 4.294405 4.2944 v 3.36743 3.36754 h -4.74954 -4.749565 l 0.455142,4.4638 c 0.2503,2.45513 0.455129,5.05289 0.455129,5.77278 0,0.98865 1.325484,1.309 5.413364,1.309 h 5.41334 l -0.22427,3.12684 -0.22428,3.12698 -9.08519,0.26931 -9.085194,0.26933 -0.03551,-21.19524 z m 50.103468,0.9841 c -0.0177,-11.08478 0.20593,-20.35126 0.49699,-20.59217 0.29104,-0.24091 2.04791,-0.74319 3.90416,-1.11705 l 3.37495,-0.67842 -0.0711,21.27115 -0.071,21.27114 h -3.80061 -3.80059 l -0.0322,-20.15432 z m 14.31249,-1.01252 -0.0355,-21.16694 h 3.49897 3.49895 l 5.21053,11.5932 c 2.86578,6.37621 5.51122,11.84297 5.8787,12.14821 0.40493,0.33637 0.5669,-4.04108 0.41118,-11.11206 -0.21759,-9.87954 -0.0925,-11.66888 0.81663,-11.67786 0.59048,-0.006 2.20087,-0.26136 3.57864,-0.56819 l 2.50507,-0.55796 -0.24211,20.53286 c -0.13303,11.29308 -0.31962,20.6392 -0.41439,20.76931 -0.0948,0.12955 -1.59621,0.49547 -3.33653,0.81138 l -3.16425,0.575 -5.34401,-11.70695 c -2.93917,-6.43894 -5.63111,-11.94558 -5.98203,-12.23719 -0.37121,-0.30795 -0.42005,4.55142 -0.11678,11.61753 l 0.52124,12.14764 h -3.62441 -3.62437 z m 29.78758,20.4874 c -0.19672,-0.42843 1.70661,-9.16579 4.22955,-19.41773 2.52294,-10.25182 4.58717,-19.1759 4.58717,-19.83124 0,-1.2633 3.68297,-2.37718 7.9185,-2.39479 l 2.55051,-0.0102 1.68898,7.93759 c 0.92893,4.36562 3.03337,13.63345 4.67653,20.59489 l 2.98753,12.65742 -2.12743,0.5716 c -5.41205,1.45501 -6.00362,1.04092 -7.09057,-4.96029 l -1.00198,-5.53222 -4.64679,-0.27954 -4.64677,-0.27956 -1.04892,5.57142 -1.04892,5.57155 -3.3349,0.28977 c -1.8342,0.1591 -3.49581,-0.0569 -3.69249,-0.4875 z m 16.4258,-19.28476 c -0.19825,-0.92615 -0.75408,-3.5238 -1.23515,-5.7728 -0.48109,-2.249 -1.08694,-4.08902 -1.34638,-4.08902 -0.42074,0 -2.88035,9.31511 -2.88035,10.90853 0,0.35 1.31001,0.63751 2.91115,0.63751 2.4327,0 2.85193,-0.27728 2.55073,-1.68376 z m 43.25542,-0.18979 c -0.0163,-11.08477 0.20625,-20.35125 0.49706,-20.59216 0.29082,-0.24089 2.04797,-0.74318 3.90418,-1.11705 l 3.37492,-0.67842 -0.0677,21.27114 -0.0677,21.27117 h -3.80055 -3.80062 l -0.0337,-20.15433 z m 11.89209,19.47489 c -0.19697,-0.42841 1.70661,-9.16579 4.22957,-19.41773 2.52297,-10.25181 4.58715,-19.17589 4.58715,-19.83124 0,-1.26331 3.68294,-2.37718 7.91851,-2.3948 l 2.55052,-0.0102 1.68892,7.93759 c 0.92895,4.36562 3.03338,13.63344 4.67658,20.59489 l 2.98749,12.65742 -2.12743,0.57159 c -5.41204,1.45501 -6.0036,1.04093 -7.09058,-4.96028 l -1.00191,-5.53222 -4.64682,-0.27955 -4.64674,-0.27954 -1.04891,5.57141 -1.049,5.57155 -3.33485,0.28977 c -1.83424,0.1591 -3.49586,-0.0569 -3.6925,-0.48749 z m 16.42574,-19.28476 c -0.19782,-0.92615 -0.75405,-3.5238 -1.23506,-5.7728 -0.48101,-2.24901 -1.08696,-4.08902 -1.3464,-4.08902 -0.42098,0 -2.88037,9.31511 -2.88037,10.90853 0,0.35001 1.31005,0.63752 2.91114,0.63752 2.43278,0 2.85198,-0.27728 2.55069,-1.68378 z"
       id="path7954"
       inkscape:connector-curvature="0" />
  </g>
</svg>
