<?xml version="1.0" encoding="UTF-8" standalone="no"?>
<!-- Created with Inkscape (http://www.inkscape.org/) -->

<svg
   xmlns:dc="http://purl.org/dc/elements/1.1/"
   xmlns:cc="http://creativecommons.org/ns#"
   xmlns:rdf="http://www.w3.org/1999/02/22-rdf-syntax-ns#"
   xmlns:svg="http://www.w3.org/2000/svg"
   xmlns="http://www.w3.org/2000/svg"
   xmlns:sodipodi="http://sodipodi.sourceforge.net/DTD/sodipodi-0.dtd"
   xmlns:inkscape="http://www.inkscape.org/namespaces/inkscape"
   width="274.57471mm"
   height="176.25462mm"
   viewBox="0 0 274.57471 176.25462"
   version="1.1"
   id="svg4647"
   inkscape:version="0.92.4 (5da689c313, 2019-01-14)"
   sodipodi:docname="logo.svg">
  <defs
     id="defs4641" />
  <sodipodi:namedview
     id="base"
     pagecolor="#ffffff"
     bordercolor="#666666"
     borderopacity="1.0"
     inkscape:pageopacity="0.0"
     inkscape:pageshadow="2"
     inkscape:zoom="0.53751164"
     inkscape:cx="291.42786"
     inkscape:cy="253.67311"
     inkscape:document-units="mm"
     inkscape:current-layer="layer1"
     showgrid="false"
     inkscape:window-width="1366"
     inkscape:window-height="705"
     inkscape:window-x="-8"
     inkscape:window-y="-8"
     inkscape:window-maximized="1"
     inkscape:pagecheckerboard="true"
     borderlayer="false"
     showborder="true"
     fit-margin-top="0"
     fit-margin-left="0"
     fit-margin-right="0"
     fit-margin-bottom="0" />
  <metadata
     id="metadata4644">
    <rdf:RDF>
      <cc:Work
         rdf:about="">
        <dc:format>image/svg+xml</dc:format>
        <dc:type
           rdf:resource="http://purl.org/dc/dcmitype/StillImage" />
        <dc:title></dc:title>
      </cc:Work>
    </rdf:RDF>
  </metadata>
  <g
     inkscape:label="Capa 1"
     inkscape:groupmode="layer"
     id="layer1"
     transform="translate(-13.136668,-99.19512)">
    <path
       style="fill:#000000;stroke-width:1.12384856"
       d="m 57.505667,274.29867 -2.316474,-0.79595 -0.03598,-38.20713 -0.03598,-38.20713 6.341502,0.0102 c 7.7365,0.0119 11.250429,2.17397 13.198966,8.12121 2.068193,6.31253 1.963995,16.4545 -0.231987,22.58398 l -1.715632,4.78849 2.440939,5.52705 c 1.958138,4.43371 2.440406,6.86395 2.438231,12.28693 -0.0035,8.94249 -2.087555,16.75786 -5.507373,20.65393 -2.778884,3.16594 -10.071331,4.78624 -14.576529,3.23854 z m 10.920888,-13.66042 c 3.542501,-8.50498 0.86125,-20.01531 -4.662425,-20.01531 -1.22728,0 -1.403411,1.27519 -1.403411,10.158 0,5.58692 0.217595,10.68043 0.483505,11.31883 0.888287,2.13264 4.476552,1.1929 5.582288,-1.46233 z M 67.01385,226.85497 c 1.955755,-5.18855 1.285891,-14.48292 -1.193741,-16.5633 -1.089255,-0.91319 -2.204799,-1.12298 -2.478992,-0.46483 -0.27422,0.65817 -0.647384,5.5059 -0.829256,10.77237 -0.319022,9.23513 -0.267108,9.57552 1.459936,9.57552 0.984876,0 2.353815,-1.49319 3.042078,-3.31976 z m 21.780799,46.83059 c -4.09836,-3.03635 -5.672693,-9.09755 -6.238952,-24.01998 -0.692871,-18.26011 -0.734334,-48.71375 -0.06768,-49.66293 0.299235,-0.42574 2.175936,-1.30397 4.170544,-1.94978 l 3.626564,-1.17441 v 29.07626 29.07627 l 1.93147,3.47114 c 2.340742,4.20665 5.239296,3.04336 6.499076,-2.60793 0.571485,-2.56352 0.809039,-12.70219 0.713604,-30.45345 -0.132012,-24.55761 -0.04284,-26.61188 1.158895,-26.62957 0.71609,-0.0102 2.52588,-0.50596 4.02183,-1.0983 l 2.71992,-1.07977 -0.0377,18.94745 c -0.0745,37.92433 -1.21126,47.96612 -6.22834,55.02156 -2.59176,3.64473 -9.252968,5.3187 -12.269836,3.08344 z m 148.220231,-1.28341 c -0.60308,-1.67622 -2.36706,-8.72342 -3.92028,-15.6608 -3.89388,-17.3911 -4.97702,-16.86026 -4.41779,2.16515 l 0.43511,14.80168 h -3.91304 -3.91298 l -0.036,-38.31017 -0.036,-38.31016 5.97883,0.0102 c 7.5822,0.0119 10.8478,2.21203 13.18533,8.88161 3.08811,8.81122 2.48682,20.99595 -1.54948,31.39789 l -1.78151,4.59103 3.6834,12.39348 c 2.02594,6.81643 3.68342,12.76654 3.68342,13.22252 0,0.78158 -5.42527,7.86517 -6.02382,7.86517 -0.15337,0 -0.77273,-1.37186 -1.3753,-3.04726 z m -3.88508,-42.11697 c 1.77451,-4.70766 1.8032,-15.51888 0.0515,-18.59783 -3.3168,-5.82281 -4.69356,-1.8202 -4.71216,13.69787 -0.01,7.52292 0.14409,8.27136 1.69099,8.27136 0.93547,0 2.27274,-1.51785 2.97174,-3.3714 z m -35.08979,5.16406 -0.036,-38.36139 h 9.42407 c 8.80659,0 9.42408,0.21801 9.42408,3.34035 0,7.85752 -0.65905,8.8493 -5.8801,8.8493 h -4.99959 v 9.5776 9.57738 h 4.35189 4.35186 v 6.09491 6.09473 h -4.81312 -4.81313 l 0.46125,8.07926 c 0.25365,4.44358 0.46122,9.14528 0.46122,10.44822 0,1.78935 1.34322,2.36894 5.4858,2.36894 h 5.4858 l -0.22728,5.65953 -0.22727,5.65928 -9.20679,0.48747 -9.20679,0.48744 -0.036,-38.36139 z m -88.05183,35.21149 c -0.18083,-0.71781 0.2636,-6.88141 0.98753,-13.69579 0.72397,-6.81438 1.67071,-19.74405 2.10393,-28.73259 1.27335,-26.42082 1.60697,-30.11306 3.01071,-33.32114 0.7334,-1.67625 1.91827,-3.01394 2.63306,-2.97322 1.70413,0.10296 6.31415,14.58368 8.07141,25.36324 1.13115,6.93902 1.75379,8.62431 3.35646,9.08521 2.18207,0.6273 4.74066,-3.83191 4.74066,-8.26252 0,-4.50056 2.86599,-16.26568 5.26789,-21.62513 3.91709,-8.7405 6.26708,-2.58778 7.54109,19.74425 0.24587,4.30988 0.68868,8.61977 0.98405,9.57738 0.29539,0.95844 0.74599,7.22674 1.00133,13.93109 0.25537,6.70413 0.65664,16.76094 0.89167,22.34806 0.41436,9.84971 0.37667,10.14093 -1.23999,9.57759 -1.14103,-0.39695 -1.85415,-2.23012 -2.25916,-5.80512 -1.81168,-15.99194 -12.18688,-14.97118 -12.18688,1.19907 0,4.77347 -0.0998,4.89586 -3.98922,4.89586 -3.93726,0 -3.98922,-0.0617 -3.98922,-5.15625 0,-7.3744 -2.46018,-12.25751 -6.17548,-12.25751 -3.54541,0 -6.15483,5.40016 -6.15483,12.73714 0,4.01434 -0.30205,4.67662 -2.13312,4.67662 -1.17322,0 -2.28107,-0.58823 -2.46189,-1.30603 z m 43.76188,-3.60198 c 0,-2.69945 0.46859,-8.77258 1.04143,-13.49565 0.57278,-4.72309 1.39087,-16.03183 1.81798,-25.13062 1.23943,-26.40396 1.58756,-30.29427 2.99962,-33.52127 0.7334,-1.67625 1.91825,-3.01394 2.63307,-2.97322 1.70411,0.10296 6.31414,14.58368 8.0714,25.36324 1.13115,6.93902 1.75379,8.62431 3.35645,9.08521 2.18207,0.6273 4.74065,-3.83191 4.74065,-8.26252 0,-4.50056 2.866,-16.26568 5.26789,-21.62513 3.91708,-8.7405 6.26708,-2.58778 7.54108,19.74425 0.24586,4.30988 0.68867,8.61977 0.98406,9.57738 0.29538,0.95844 0.746,7.22674 1.00134,13.93109 0.25536,6.70413 0.65663,16.76094 0.89166,22.34806 0.41438,9.84971 0.37667,10.14093 -1.23998,9.57759 -1.14103,-0.39695 -1.85415,-2.23012 -2.25917,-5.80512 -1.8117,-15.99194 -12.18688,-14.97118 -12.18688,1.19907 0,4.77347 -0.0998,4.89586 -3.98921,4.89586 -3.93726,0 -3.98922,-0.0617 -3.98922,-5.15625 0,-7.3744 -2.46018,-12.25751 -6.17549,-12.25751 -3.5454,0 -6.1548,5.40016 -6.1548,12.73714 0,4.03532 -0.29839,4.67662 -2.17594,4.67662 -1.90303,0 -2.17594,-0.61498 -2.17594,-4.90798 z m -34.80389,1.86137 c 0.006,-0.71782 0.30764,-2.43106 0.67001,-3.806 0.54612,-2.07195 0.85468,-2.10999 1.80217,-0.22212 1.65903,3.30558 1.40422,5.33415 -0.67001,5.33415 -0.9973,0 -1.80828,-0.58824 -1.80217,-1.30603 z m 20.32122,-2.28258 c 0.90385,-4.05441 2.39668,-3.68237 2.74952,0.6849 0.17056,2.11187 -0.28116,2.90309 -1.65747,2.90309 -1.68581,0 -1.80482,-0.39078 -1.09205,-3.5886 z m 23.19751,2.28258 c 0.005,-0.71782 0.30762,-2.43106 0.67,-3.806 0.54613,-2.07195 0.85471,-2.10999 1.80216,-0.22212 1.65906,3.30558 1.40424,5.33415 -0.66999,5.33415 -0.99728,0 -1.80829,-0.58824 -1.80217,-1.30603 z m 20.32121,-2.28258 c 0.90384,-4.05441 2.39668,-3.68237 2.74954,0.6849 0.17055,2.11187 -0.28117,2.90309 -1.65747,2.90309 -1.68583,0 -1.80482,-0.39078 -1.09207,-3.5886 z M 129.6687,174.88623 c -0.60293,-1.67624 -2.36705,-8.72322 -3.92032,-15.66058 -3.89386,-17.39114 -4.97698,-16.8603 -4.41775,2.16511 l 0.43509,14.8015 h -3.913 -3.91302 l -0.036,-38.30999 -0.036,-38.310159 5.97884,0.01023 c 7.58222,0.01193 10.84776,2.212019 13.18533,8.881799 3.08813,8.81105 2.48682,20.99577 -1.54946,31.39769 l -1.78152,4.59125 3.68342,12.39346 c 2.02588,6.81643 3.68341,12.76658 3.68341,13.22256 0,0.78154 -5.42528,7.86514 -6.02384,7.86514 -0.15352,0 -0.77247,-1.37183 -1.37534,-3.04747 z m -3.8851,-42.11679 c 1.7745,-4.70766 1.80325,-15.51888 0.0497,-18.59779 -3.31678,-5.82282 -4.69355,-1.82022 -4.71213,13.69764 -0.01,7.52312 0.14393,8.27157 1.69096,8.27157 0.93547,0 2.27276,-1.51787 2.97173,-3.37142 z m 109.05534,42.11679 c -0.60308,-1.67624 -2.36703,-8.72322 -3.92028,-15.66058 -3.89388,-17.39114 -4.97702,-16.8603 -4.41779,2.16511 l 0.43511,14.8015 h -3.91301 -3.91301 l -0.036,-38.30999 -0.036,-38.310159 5.97883,0.01023 c 7.58221,0.01193 10.8478,2.212019 13.18532,8.881799 3.08812,8.81105 2.48683,20.99577 -1.54944,31.39769 l -1.78154,4.59125 3.68341,12.39346 c 2.02594,6.81643 3.68343,12.76658 3.68343,13.22256 0,0.78154 -5.42529,7.86514 -6.02383,7.86514 -0.15336,0 -0.77274,-1.37183 -1.37531,-3.04747 z m -3.8851,-42.11679 c 1.77453,-4.70766 1.80324,-15.51888 0.0497,-18.59779 -3.31679,-5.82282 -4.69355,-1.82022 -4.71214,13.69764 -0.01,7.52312 0.14409,8.27157 1.69098,8.27157 0.93547,0 2.27275,-1.51787 2.97172,-3.37142 z M 20.720337,171.47576 c -0.258456,-2.67354 -2.135314,-19.18954 -4.170783,-36.70221 -2.035467,-17.51249 -3.565777,-32.16528 -3.400689,-32.56181 0.165087,-0.39695 2.05184,-0.95639 4.192765,-1.24434 l 3.892596,-0.52446 2.569825,26.55595 c 1.413409,14.60569 2.791607,26.55591 3.062665,26.55591 0.271048,0 1.533443,-9.5994 2.805304,-21.33181 3.886119,-35.847849 3.304563,-33.246289 7.149074,-31.9812 1.816632,0.59851 3.394349,1.30602 3.50605,1.57341 0.111703,0.26736 -1.830974,16.91664 -4.317032,36.99654 l -4.520115,36.50907 -5.149866,0.50804 c -5.108013,0.50388 -5.15368,0.46892 -5.619794,-4.35329 z M 44.273848,137.9335 44.237866,99.572111 h 9.424075 c 8.806589,0 9.424076,0.218027 9.424076,3.340349 0,7.85735 -0.659035,8.8493 -5.880102,8.8493 h -4.99958 v 9.5774 9.57759 h 4.351872 4.351873 v 6.09473 6.09493 h -4.81312 -4.813111 l 0.461229,8.07906 c 0.253659,4.44356 0.461231,9.14526 0.461231,10.44819 0,1.78936 1.343212,2.36916 5.485792,2.36916 h 5.485802 l -0.227274,5.6593 -0.227274,5.65953 -9.206782,0.48743 -9.20679,0.48746 z m 27.380075,5.90675 0.22676,-32.35634 -4.083822,1.22581 -4.083813,1.22582 0.230443,-6.74549 0.230444,-6.74568 11.880665,-0.479211 11.880673,-0.479212 -0.457032,5.485913 c -0.251348,3.01743 -0.457033,6.22821 -0.457033,7.13504 0,0.98721 -1.634367,1.15792 -4.070603,0.42778 l -4.070595,-1.2217 0.267538,32.44045 0.267537,32.44027 -3.994026,0.002 -3.994035,0.002 z M 90.69382,137.9335 90.657838,99.572111 h 9.424072 c 8.8066,0 9.42407,0.218027 9.42407,3.340349 0,7.85735 -0.65903,8.8493 -5.88009,8.8493 h -4.999589 v 9.5774 9.57759 h 4.351869 4.35188 v 6.09473 6.09493 h -4.81311 -4.813123 l 0.461231,8.07906 c 0.253657,4.44356 0.461227,9.14526 0.461227,10.44819 0,1.78936 1.343213,2.36916 5.485805,2.36916 h 5.48579 l -0.22727,5.6593 -0.22728,5.65953 -9.206788,0.48743 -9.20678,0.48746 -0.03598,-38.36139 z m 50.77402,1.78113 c -0.0179,-20.0624 0.20869,-36.83386 0.50364,-37.26988 0.29494,-0.43603 2.07532,-1.34511 3.95641,-2.02175 l 3.42012,-1.22788 -0.072,38.49877 -0.072,38.49877 h -3.85147 -3.85146 l -0.0326,-36.47742 z m 14.50404,-1.83256 -0.036,-38.310164 h 3.5458 3.54578 l 5.28026,20.982604 c 2.90414,11.54033 5.58498,21.43466 5.95738,21.9871 0.41035,0.60881 0.57449,-7.31396 0.41668,-20.11177 -0.2205,-17.88104 -0.0937,-21.11957 0.82756,-21.13583 0.59838,-0.0102 2.23033,-0.47304 3.62654,-1.02836 l 2.53859,-1.009866 -0.24535,37.162536 c -0.13481,20.43941 -0.32389,37.35502 -0.41993,37.5905 -0.0961,0.23447 -1.61758,0.89675 -3.38119,1.46852 l -3.2066,1.0407 -5.41553,-21.18848 c -2.97851,-11.65387 -5.70647,-21.62037 -6.06209,-22.14815 -0.37618,-0.55736 -0.42567,8.23763 -0.11834,21.02662 l 0.52821,21.98608 h -3.67291 -3.67288 z m 30.18625,37.08026 c -0.19935,-0.77541 1.72945,-16.58921 4.28616,-35.14425 2.5567,-18.55483 4.64856,-34.70657 4.64856,-35.89268 0,-2.28646 3.73226,-4.302477 8.02448,-4.334352 l 2.58464,-0.01841 1.71159,14.366292 c 0.94136,7.90136 3.07396,24.67527 4.73911,37.27482 l 3.02752,22.90873 -2.1559,1.03454 c -5.48449,2.63344 -6.08397,1.88397 -7.18547,-8.97765 l -1.01539,-10.0128 -4.70898,-0.50595 -4.70896,-0.50596 -1.06296,10.08374 -1.06296,10.08398 -3.37953,0.52445 c -1.85875,0.28795 -3.5426,-0.10295 -3.74191,-0.88233 z m 16.64563,-34.90359 c -0.2009,-1.67625 -0.76417,-6.37775 -1.25168,-10.44822 -0.48752,-4.07049 -1.10148,-7.40074 -1.3644,-7.40074 -0.42637,0 -2.91889,16.85946 -2.91889,19.7434 0,0.63347 1.32754,1.15384 2.95011,1.15384 2.46526,0 2.8901,-0.50186 2.58486,-3.04746 z m 43.83434,-0.3435 c -0.0165,-20.06239 0.20901,-36.83385 0.50371,-37.26987 0.29471,-0.436 2.07538,-1.34508 3.95643,-2.02176 l 3.42009,-1.227877 -0.0686,38.498767 -0.0686,38.4988 h -3.85142 -3.85148 l -0.0342,-36.47744 z m 12.05125,35.24771 c -0.19961,-0.77538 1.72945,-16.58921 4.28617,-35.14426 2.55674,-18.55481 4.64855,-34.70655 4.64855,-35.89268 0,-2.28646 3.73223,-4.302473 8.02448,-4.334348 l 2.58466,-0.01841 1.71152,14.366288 c 0.94139,7.90135 3.07398,24.67524 4.73917,37.2748 l 3.02748,22.90873 -2.15591,1.03453 c -5.48447,2.63344 -6.08395,1.88399 -7.18547,-8.97763 l -1.01532,-10.0128 -4.70901,-0.50597 -4.70893,-0.50594 -1.06295,10.08374 -1.06304,10.08398 -3.37948,0.52445 c -1.85879,0.28796 -3.54265,-0.10296 -3.74192,-0.88232 z m 16.64557,-34.9036 c -0.20046,-1.67625 -0.76414,-6.37774 -1.25159,-10.44822 -0.48744,-4.07049 -1.1015,-7.40074 -1.36442,-7.40074 -0.42661,0 -2.91892,16.85947 -2.91892,19.7434 0,0.63349 1.32759,1.15385 2.95011,1.15385 2.46533,0 2.89015,-0.50185 2.58482,-3.04747 z"
       id="path7954"
       inkscape:connector-curvature="0" />
  </g>
</svg>
